<svg id="Слой_1" data-name="Слой 1" xmlns="http://www.w3.org/2000/svg" xmlns:xlink="http://www.w3.org/1999/xlink" viewBox="0 0 435 435">
<link xmlns="http://www.w3.org/1999/xhtml" rel="stylesheet" href="style.css" type="text/css"/>
<defs><style>
.cls-1{fill:url(#Безымянный_градиент_1879);}.cls-2{fill:url(#Безымянный_градиент_2344);}.cls-26,.cls-3,.cls-8{opacity:0;}.cls-3{fill:url(#Безымянный_градиент_2042);}.cls-4{opacity:0.1;}.cls-5{opacity:0.33;}.cls-6{opacity:0.55;}.cls-7{opacity:0.78;}.cls-9{opacity:0.25;fill:url(#Безымянный_градиент_1845);}.cls-10{opacity:0.5;fill:url(#Безымянный_градиент_1845-2);}.cls-11{opacity:0.75;fill:url(#Безымянный_градиент_1845-3);}.cls-12{fill:url(#Безымянный_градиент_1845-4);}.cls-13{fill:#0092b3;}.cls-14{fill:url(#Безымянный_градиент_1620);}.cls-15{fill:url(#Безымянный_градиент_1617);}.cls-16{fill:url(#Безымянный_градиент_1617-2);}.cls-17{fill:none;stroke:#0a0a0a;stroke-width:6px;}.cls-17,.cls-18,.cls-20{stroke-miterlimit:10;}.cls-18{fill:#1f1f1f;stroke:url(#Безымянный_градиент_544);}.cls-19{fill:url(#Безымянный_градиент_149);}.cls-20{fill:url(#Безымянный_градиент_2186);stroke:url(#Безымянный_градиент_601);}.cls-21{font-size:141px;}.cls-21,.cls-23{fill:#fcffff;font-family:"Gemunu Libre";}.cls-21,.cls-23,.cls-24,.cls-25{font-weight:700;}.cls-22{fill:url(#Безымянный_градиент_2203);}.cls-23{font-size:36px;}.cls-24{font-size:21.21px;}.cls-24,.cls-25{fill:#878787;font-family:Play-Bold, Play;}.cls-25{font-size:19.8px;}
</style><radialGradient id="Безымянный_градиент_1879" cx="217.5" cy="217.5" r="217.5" gradientUnits="userSpaceOnUse"><stop offset="0.54" stop-color="#1f1f1f"/><stop offset="0.65" stop-color="#202020"/><stop offset="1" stop-color="#191919"/></radialGradient><radialGradient id="Безымянный_градиент_2344" cx="389.77" cy="224.66" r="139.71" gradientUnits="userSpaceOnUse"><stop offset="0" stop-color="#de0000"/><stop offset="0.59" stop-color="#7e0831"/><stop offset="1" stop-color="#00126f"/></radialGradient><radialGradient id="Безымянный_градиент_2042" cx="217.5" cy="217.5" r="119" gradientUnits="userSpaceOnUse"><stop offset="0.88" stop-color="#1d1d1b"/><stop offset="0.97" stop-color="#b70908"/><stop offset="1" stop-color="#000202"/></radialGradient><radialGradient id="Безымянный_градиент_1845" cx="220.5" cy="223.75" r="110.5" gradientUnits="userSpaceOnUse"><stop offset="0"/><stop offset="1"/></radialGradient><radialGradient id="Безымянный_градиент_1845-2" cx="219.5" cy="222" r="109" xlink:href="#Безымянный_градиент_1845"/><radialGradient id="Безымянный_градиент_1845-3" cx="218.5" cy="220.25" r="107.5" xlink:href="#Безымянный_градиент_1845"/><radialGradient id="Безымянный_градиент_1845-4" cx="217.5" cy="218.5" r="106" xlink:href="#Безымянный_градиент_1845"/><radialGradient id="Безымянный_градиент_1620" cx="218.13" cy="217.37" r="155.59" gradientUnits="userSpaceOnUse"><stop offset="0.81" stop-opacity="0"/><stop offset="0.81" stop-opacity="0"/><stop offset="0.85" stop-color="#00d4ec" stop-opacity="0.1"/><stop offset="0.91" stop-color="#00d4ec" stop-opacity="0.2"/><stop offset="0.96" stop-color="#00d4ec" stop-opacity="0.1"/><stop offset="1" stop-opacity="0"/></radialGradient><radialGradient id="Безымянный_градиент_1617" cx="283.2" cy="100.16" r="15" gradientUnits="userSpaceOnUse"><stop offset="0.81" stop-opacity="0"/><stop offset="0.81" stop-opacity="0"/><stop offset="0.85" stop-color="red" stop-opacity="0.1"/><stop offset="0.91" stop-color="red" stop-opacity="0.2"/><stop offset="0.96" stop-color="red" stop-opacity="0.1"/><stop offset="1" stop-opacity="0"/></radialGradient><radialGradient id="Безымянный_градиент_1617-2" cx="219.39" cy="217.61" fy="240.48403881458094" r="154" xlink:href="#Безымянный_градиент_1617"/><linearGradient id="Безымянный_градиент_544" x1="131.09" y1="117.83" x2="285.61" y2="385.48" gradientUnits="userSpaceOnUse"><stop offset="0" stop-color="#4f4f4f"/><stop offset="0.36" stop-color="#141414"/><stop offset="1"/></linearGradient><linearGradient id="Безымянный_градиент_149" x1="217.5" y1="111.5" x2="217.5" y2="323.5" gradientUnits="userSpaceOnUse"><stop offset="0" stop-color="#343434"/><stop offset="1" stop-color="#1d1d1b"/></linearGradient><radialGradient id="Безымянный_градиент_2186" cx="217.5" cy="217.5" r="106" gradientUnits="userSpaceOnUse"><stop offset="0" stop-color="#3bd0ff" stop-opacity="0.5"/><stop offset="1" stop-color="#008cc5" stop-opacity="0"/></radialGradient><linearGradient id="Безымянный_градиент_601" x1="199" y1="112.6" x2="236" y2="322.4" gradientUnits="userSpaceOnUse"><stop offset="0" stop-color="#7a7a7a"/><stop offset="0.73" stop-color="#1d1d1b"/></linearGradient><radialGradient id="Безымянный_градиент_2203" cx="221.5" cy="367.5" r="44" gradientTransform="translate(0 108.58) scale(1 0.7)" gradientUnits="userSpaceOnUse"><stop offset="0" stop-color="#43c7ff" stop-opacity="0.3"/><stop offset="1" stop-color="#00a6d3" stop-opacity="0"/></radialGradient></defs><circle class="cls-1" cx="217.5" cy="217.5" r="217.5"/><path class="cls-2" d="M334.7,99.36l-16.21,16.21a143.5,143.5,0,0,1,17.43,183l19.89,11.49A166.45,166.45,0,0,0,334.7,99.36Z"/><circle id="red-glow" class="cls-3" cx="217.5" cy="217.5" r="119"/><path class="cls-4" d="M102.9,223.82C102.9,156,156.45,101,222.5,101s119.6,55,119.6,122.78a125.46,125.46,0,0,1-8.57,45.72,123.75,123.75,0,0,1-7.26,15.34c-20.63,36.88-59.38,61.71-103.77,61.71s-83.14-24.83-103.77-61.71a123.75,123.75,0,0,1-7.26-15.34A125.46,125.46,0,0,1,102.9,223.82ZM335,290.05a132.77,132.77,0,0,0,7.33-15.3,135.67,135.67,0,0,0,9.84-50.93c0-73.51-58-133.1-129.65-133.1S92.85,150.31,92.85,223.82a135.67,135.67,0,0,0,9.84,50.93,132.77,132.77,0,0,0,7.33,15.3L66.5,315.85c31.06,55.37,89.29,92.65,156,92.65s124.94-37.28,156-92.65Z"/><path class="cls-5" d="M101.8,222.74c0-67.29,53.48-121.84,119.45-121.84S340.7,155.45,340.7,222.74a123.63,123.63,0,0,1-8.56,45.37,122.15,122.15,0,0,1-7.25,15.23c-20.61,36.59-59.3,61.23-103.64,61.23s-83-24.64-103.64-61.23a122.15,122.15,0,0,1-7.25-15.23A123.63,123.63,0,0,1,101.8,222.74Zm231.79,65.73a133.65,133.65,0,0,0,17.15-65.73c0-72.94-58-132.08-129.49-132.08S91.76,149.8,91.76,222.74a133.65,133.65,0,0,0,17.15,65.73L65.45,314.06C96.46,369,154.62,406,221.25,406S346,369,377.05,314.06Z"/><path class="cls-6" d="M100.7,221.66c0-66.77,53.41-120.89,119.3-120.89s119.3,54.12,119.3,120.89a122.06,122.06,0,0,1-8.55,45,120.51,120.51,0,0,1-7.24,15.11C302.93,318.1,264.28,342.55,220,342.55s-82.93-24.45-103.51-60.76a120.51,120.51,0,0,1-7.24-15.11A122.06,122.06,0,0,1,100.7,221.66Zm231.5,65.22a131.91,131.91,0,0,0,17.12-65.22c0-72.37-57.9-131-129.32-131S90.68,149.29,90.68,221.66a131.91,131.91,0,0,0,17.12,65.22L64.39,312.27c31,54.53,89.06,91.23,155.61,91.23s124.63-36.7,155.61-91.23Z"/><path class="cls-7" d="M99.6,220.58c0-66.24,53.35-120,119.15-120s119.15,53.71,119.15,120a120.3,120.3,0,0,1-8.54,44.67,119.08,119.08,0,0,1-221.22,0A120.3,120.3,0,0,1,99.6,220.58Zm231.21,64.71a130.28,130.28,0,0,0,17.1-64.71c0-71.81-57.83-130-129.16-130s-129.16,58.22-129.16,130a130.28,130.28,0,0,0,17.1,64.71l-43.35,25.2C94.27,364.58,152.29,401,218.75,401s124.48-36.42,155.41-90.51Z"/><path d="M98.5,219.5A119,119,0,1,1,328,263.82a117.26,117.26,0,0,1-7.22,14.87,119,119,0,0,1-206.5,0A117.26,117.26,0,0,1,107,263.82,118.71,118.71,0,0,1,98.5,219.5Zm230.92,64.2a129,129,0,1,0-223.84,0l-43.3,25a179,179,0,0,0,310.44,0Z"/><circle class="cls-8" cx="221.5" cy="225.5" r="112"/><circle class="cls-9" cx="220.5" cy="223.75" r="110.5"/><circle class="cls-10" cx="219.5" cy="222" r="109"/><circle class="cls-11" cx="218.5" cy="220.25" r="107.5"/><circle class="cls-12" cx="217.5" cy="218.5" r="106"/><rect class="cls-13" x="216.5" y="36.32" width="2" height="57.01"/><path class="cls-13" d="M308.87,61.07l-12,20.82-2,3.45-14.48,25.07-1.73-1,14.47-25.07,2-3.46,12-20.81Z"/><path class="cls-13" d="M110.6,278.2,85.49,292.68l-3.46,2-20.78,12-1-1.73L81,293l3.46-2,25.12-14.5Z"/><path class="cls-13" d="M374.75,127.68l-20.81,12-3.47,2L325.4,156.17c-.33-.58-.66-1.15-1-1.72L349.47,140l3.46-2,20.82-12Z"/><rect class="cls-13" x="36.5" y="216.32" width="57.01" height="2"/><rect class="cls-13" x="341.49" y="216.32" width="57.01" height="2"/><path class="cls-13" d="M156.36,109.41l-1.73,1L140.15,85.34l-2-3.45-12-20.82,1.74-1,12,20.81,2,3.46Z"/><path class="cls-13" d="M110.6,154.45c-.34.57-.67,1.14-1,1.72L84.53,141.71l-3.47-2-20.81-12,1-1.73,20.82,12,3.46,2Z"/><path class="cls-13" d="M374.75,305l-1,1.73-20.78-12-3.46-2L324.4,278.2l1-1.74L350.52,291l3.46,2Z"/><path class="cls-13" d="M93.5,217.32c0-.34,0-.68,0-1v2C93.5,218,93.5,217.64,93.5,217.32Z"/><path class="cls-13" d="M217.5,93.32h0Z"/><path class="cls-13" d="M341.5,217.32c0,.32,0,.66,0,1v-2C341.5,216.64,341.5,217,341.5,217.32Z"/><path class="cls-13" d="M58.26,172.83,98,183.47c-.18.64-.35,1.29-.52,1.93l-39.7-10.64Z"/><polygon class="cls-13" points="221.36 216.53 219.43 217.05 220.85 218.46 218.91 217.94 218.21 217.75 217.8 217.64 217.5 217.56 216.98 217.43 216.68 217.35 216.28 217.24 215.56 217.05 213.64 216.53 215.57 216.01 214.15 214.6 216.09 215.12 216.79 215.31 217.2 215.41 217.5 215.5 218.02 215.63 218.32 215.71 218.72 215.82 219.43 216.01 221.36 216.53"/><path class="cls-13" d="M377.26,258.3l-.52,1.93L337,249.59c.18-.64.35-1.29.52-1.93Z"/><path class="cls-13" d="M101.44,99.06l29.09,29.09q-.72.69-1.41,1.41L100,100.47Z"/><polygon class="cls-13" points="220.85 218.46 218.91 217.94 219.43 219.88 218.02 218.46 217.5 217.94 217.2 217.65 216.08 216.53 215.57 216.01 214.15 214.6 216.09 215.12 215.57 213.18 216.98 214.6 217.5 215.11 217.8 215.41 218.02 215.63 218.4 216.01 218.62 216.23 218.91 216.53 219.43 217.05 220.85 218.46"/><path class="cls-13" d="M175.73,56.77l10.64,39.7-1.93.52L173.8,57.29Z"/><polygon class="cls-13" points="218.91 217.94 219.43 219.88 218.02 218.46 217.5 220.39 216.98 218.46 216.79 217.75 216.68 217.35 216.6 217.05 216.47 216.53 216.38 216.23 216.28 215.82 216.09 215.12 215.57 213.18 216.98 214.6 217.5 212.67 218.02 214.59 218.21 215.31 218.32 215.71 218.4 216.01 218.53 216.53 218.61 216.83 218.72 217.24 218.91 217.94"/><polygon class="cls-13" points="218.02 214.59 219.43 213.18 218.91 215.12 218.72 215.82 218.62 216.23 218.53 216.53 218.4 217.04 218.32 217.35 218.21 217.75 218.02 218.46 217.5 220.39 216.98 218.46 215.57 219.87 216.09 217.94 216.28 217.24 216.38 216.83 216.47 216.53 216.61 216 216.68 215.71 216.79 215.31 216.98 214.6 217.5 212.67 218.02 214.59"/><path class="cls-13" d="M261.2,57.29,250.56,97l-1.93-.52,10.64-39.7Z"/><path class="cls-13" d="M97.44,247.66c.17.64.34,1.29.52,1.93l-39.7,10.64-.52-1.93Z"/><polygon class="cls-13" points="219.43 216.01 221.36 216.53 219.43 217.05 218.72 217.24 218.32 217.35 218.01 217.43 217.5 217.56 217.2 217.65 216.79 217.75 216.09 217.94 214.15 218.46 215.56 217.05 213.64 216.53 215.57 216.01 216.28 215.82 216.68 215.71 216.97 215.64 217.5 215.5 217.8 215.41 218.21 215.31 218.91 215.12 220.84 214.6 219.43 216.01"/><path class="cls-13" d="M377.26,174.76l-39.7,10.64c-.17-.64-.34-1.29-.52-1.93l39.7-10.64Z"/><polygon class="cls-13" points="218.91 215.12 220.84 214.6 219.43 216.01 218.61 216.83 218.4 217.04 218.01 217.43 215.57 219.87 216.09 217.94 214.15 218.46 215.56 217.05 216.08 216.53 216.38 216.23 216.61 216 216.97 215.64 217.2 215.41 217.5 215.11 218.02 214.59 219.43 213.18 218.91 215.12"/><path class="cls-13" d="M335,100.47l-29.09,29.09c-.46-.48-.93-.95-1.41-1.42l29.08-29.08Z"/><polygon class="cls-13" points="220.85 218.46 218.91 217.94 219.43 219.88 218.02 218.46 217.5 220.39 216.98 218.46 215.57 219.87 216.09 217.94 214.15 218.46 215.56 217.05 213.64 216.53 215.57 216.01 214.15 214.6 216.09 215.12 215.57 213.18 216.98 214.6 217.5 212.67 218.02 214.59 219.43 213.18 218.91 215.12 220.84 214.6 219.43 216.01 221.36 216.53 219.43 217.05 220.85 218.46"/><path class="cls-14" d="M217.5,62.5a155,155,0,0,0-9,309.74V336.16a119,119,0,0,1-94.25-59.47A117.26,117.26,0,0,1,107,261.82,119,119,0,0,1,281.12,116.93l18-31.21A154.27,154.27,0,0,0,217.5,62.5Z"/><path class="cls-15" d="M298.18,87.37l-14.07,24.38-2,3.43"/><path class="cls-16" d="M282.13,115.18l-1,1.75A119.11,119.11,0,0,1,328,261.82a117.26,117.26,0,0,1-7.22,14.87A119,119,0,0,1,228.5,336q-5.43.5-11,.5-4.55,0-9-.34v36.08q4.47.25,9,.26,5.55,0,11-.38a155,155,0,0,0,70.64-286.4l-1,1.65"/><circle class="cls-17" cx="217.5" cy="217.5" r="155"/><path class="cls-18" d="M329.42,281.7a129,129,0,1,0-223.84,0l-43.3,25a179,179,0,0,0,310.44,0ZM98.5,217.5A119,119,0,1,1,328,261.82a117.26,117.26,0,0,1-7.22,14.87,119,119,0,0,1-206.5,0A117.26,117.26,0,0,1,107,261.82,118.71,118.71,0,0,1,98.5,217.5Z"/><circle class="cls-19" cx="217.5" cy="217.5" r="106"/><circle class="cls-20" cx="217.5" cy="217.5" r="106"/><g id="temperature-digit"><text class="cls-21" transform="translate(127.95 271.85) scale(0.75 1)">182</text></g><ellipse class="cls-22" cx="221.5" cy="367.5" rx="44" ry="31"/><text class="cls-23" transform="translate(201 379.71) scale(0.75 1)">°C</text><g id="numbers20-100"><text class="cls-24" transform="translate(208.07 32.85) scale(0.77 1)">60 </text><text class="cls-24" transform="translate(304.07 56.85) scale(0.77 1)">70 </text><text class="cls-24" transform="translate(377.4 126.85) scale(0.74 1)">80 </text><text class="cls-24" transform="translate(399.75 224.85) scale(0.79 1)">90 </text><text class="cls-24" transform="translate(376.36 311.85) scale(0.77 1)">100 </text><text class="cls-24" transform="translate(36.07 311.85) scale(0.77 1)">20 </text><text class="cls-24" transform="translate(15.4 224.85) scale(0.74 1)">30 </text><text class="cls-24" transform="translate(40.4 126.85) scale(0.74 1)">40 </text><text class="cls-25" transform="translate(108.4 56.36) scale(0.79 1)">50 </text></g><g id="numbers40-40" class="cls-26"><text class="cls-24" transform="translate(212.79 32.85) scale(0.77 1)">0 </text><text class="cls-24" transform="translate(304.07 56.85) scale(0.77 1)">10 </text><text class="cls-24" transform="translate(377.4 126.85) scale(0.74 1)">20 </text><text class="cls-24" transform="translate(399.75 224.85) scale(0.79 1)">30 </text><text class="cls-24" transform="translate(381.07 311.85) scale(0.77 1)">40 </text><text class="cls-24" transform="translate(32.92 311.85) scale(0.77 1)">-40 </text><text class="cls-24" transform="translate(12.36 224.85) scale(0.74 1)">-30 </text><text class="cls-24" transform="translate(37.36 126.85) scale(0.74 1)">-20 </text><text class="cls-25" transform="translate(105.36 56.36) scale(0.79 1)">-10 </text></g></svg>