<svg id="Слой_1" data-name="Слой 1" xmlns="http://www.w3.org/2000/svg" viewBox="0 0 189.95 210.88"><defs><style>.cls-1{fill:#ffe15c;}</style></defs><path class="cls-1" d="M192.49,182.15A106.79,106.79,0,0,1,51.2,235.42,105.49,105.49,0,0,1,26,219.54,106.74,106.74,0,0,0,118.15,34.06a106.69,106.69,0,0,1,81.27,127.17A98.58,98.58,0,0,1,192.49,182.15Z" transform="translate(-12 -34.06)"/><polygon class="cls-1" points="66 22.94 70.24 48.7 96 52.94 70.24 57.18 66 82.94 61.76 57.18 36 52.94 61.76 48.7 66 22.94"/><polygon class="cls-1" points="39 85.94 41.97 103.97 60 106.94 41.97 109.91 39 127.94 36.03 109.91 18 106.94 36.03 103.97 39 85.94"/><polygon class="cls-1" points="21 13.94 23.97 31.97 42 34.94 23.97 37.91 21 55.94 18.03 37.91 0 34.94 18.03 31.97 21 13.94"/></svg>