<?xml version="1.0" encoding="utf-8"?>
<!-- Generator: Adobe Illustrator 25.4.1, SVG Export Plug-In . SVG Version: 6.00 Build 0)  -->
<svg version="1.1" id="Слой_1" xmlns="http://www.w3.org/2000/svg" xmlns:xlink="http://www.w3.org/1999/xlink" x="0px" y="0px"
	 viewBox="0 0 279 279" style="enable-background:new 0 0 279 279;" xml:space="preserve">
<circle cx="139.5" cy="137" r="57.5"/>
<path d="M279,132.8v8.5h-53.5c0-0.6,0-1.2,0-1.8c0-2.3-0.1-4.5-0.3-6.8H279z"/>
<polygon points="53.8,132.8 0,132.8 0,141.2 53.5,141.2 "/>
<rect x="135.2" y="225.4" width="8.5" height="53.6"/>
<rect x="135.2" width="8.5" height="53.6"/>
<polygon points="194.9,73.8 234.2,34.5 240.3,40.5 201.2,79.6 "/>
<polygon points="79.6,201.2 43,237.8 37,231.8 73.8,194.9 "/>
<path d="M242,233.5l-6,6L198.5,202c2.1-1.9,4-4,5.9-6.1L242,233.5z"/>
<polygon points="83.1,74.6 44.8,36.2 38.7,42.2 77,80.5 "/>
</svg>
